<?xml version="1.0" encoding="utf-8"?>
<!-- Svg Vector Icons : http://www.onlinewebfonts.com/icon -->
<!DOCTYPE svg PUBLIC "-//W3C//DTD SVG 1.1//EN" "http://www.w3.org/Graphics/SVG/1.1/DTD/svg11.dtd">
<svg version="1.1" xmlns="http://www.w3.org/2000/svg" xmlns:xlink="http://www.w3.org/1999/xlink" x="0px" y="0px" viewBox="0 0 1000 1000" enable-background="new 0 0 1000 1000" xml:space="preserve">
<metadata> Svg Vector Icons : http://www.onlinewebfonts.com/icon </metadata>
<g><path d="M871.8,158.6h-94.9v-19.9c0-12.4-17.4-21.3-38.8-21.3H630.9C617.8,56,563.2,10,497.9,10c-65.3,0-119.8,46-133,107.4H260.1c-21.4,0-35.4,10-35.4,22.4v18.8h-96.4c-21.7,0-39.2,17.6-39.2,39.3v752.9c0,21.7,17.6,39.3,39.2,39.3h743.6c21.7,0,39.3-17.6,39.3-39.3V197.8C911,176.2,893.5,158.6,871.8,158.6z M286.2,776.7c-20.4,0-37-16.6-37-37c0-20.4,16.6-37,37-37c20.4,0,37,16.6,37,37C323.2,760.1,306.6,776.7,286.2,776.7z M286.2,621.9c-20.4,0-37-16.6-37-37c0-20.4,16.6-37,37-37c20.4,0,37,16.6,37,37C323.2,605.3,306.6,621.9,286.2,621.9z M286.2,466c-20.4,0-37-16.6-37-37c0-20.4,16.6-37,37-37c20.4,0,37,16.6,37,37C323.2,449.5,306.6,466,286.2,466z M706.8,763.2h-312c-12.9,0-23.4-10.3-23.4-23c0-12.7,10.5-23,23.4-23h312c12.9,0,23.4,10.3,23.4,23C730.3,752.9,719.8,763.2,706.8,763.2z M706.8,608.4h-312c-12.9,0-23.4-10.3-23.4-23c0-12.7,10.5-23,23.4-23h312c12.9,0,23.4,10.3,23.4,23C730.3,598.1,719.8,608.4,706.8,608.4z M706.8,452.6h-312c-12.9,0-23.4-10.3-23.4-23c0-12.7,10.5-23,23.4-23h312c12.9,0,23.4,10.3,23.4,23C730.3,442.3,719.8,452.6,706.8,452.6z"/></g>
</svg>